# xmcd
#
# Track frame offsets:
#	150
#	12218
#	21983
#	35521
#	47671
#	61081
#	76801
#	96076
#	109509
#
# Disc length: 1495 seconds
#
# Revision: 1
# Processed by: cddbd v1.5.2PL0 Copyright (c) Steve Scherf et al.
# Submitted via: audiograbber 1.83.01
#
DISCID=6005d509
DTITLE=Peggy Luck - aus jedem aus jedem wahn
DYEAR=2017
DGENRE=Lied
TTITLE0=aus jedem traum aus jedem wahn
TTITLE1=blaurote liebe
TTITLE2=crow
TTITLE3=gomerón
TTITLE4=hey now i know what i want i want to run in circles
TTITLE5=kaffeelied
TTITLE6=kreide
TTITLE7=woodnt
TTITLE8=bohnus
EXTD=
EXTT0=
EXTT1=
EXTT2=
EXTT3=
EXTT4=
EXTT5=
EXTT6=
EXTT7=
EXTT8=
PLAYORDER=
